<svg width="95" height="54" viewBox="0 0 95 54" fill="none" xmlns="http://www.w3.org/2000/svg">
<path d="M2.32 42V19.48H9.44L14.72 40.24H14.8L20.04 19.48H27.12V42H22.88L23.16 21.32H23.12L17.72 42H11.72L6.4 21.32H6.32L6.56 42H2.32ZM36.495 42.4C34.2283 42.4 32.615 41.6267 31.655 40.08C30.695 38.5333 30.215 36.5067 30.215 34C30.215 31.4667 30.695 29.4267 31.655 27.88C32.6417 26.3067 34.255 25.52 36.495 25.52C37.775 25.52 38.7883 25.7467 39.535 26.2C40.2817 26.6267 40.8417 27.1067 41.215 27.64C41.5883 28.1733 41.815 28.5733 41.895 28.84H41.975V25.56H46.175V42H42.655L41.975 39.32H41.895C41.815 39.56 41.575 39.9333 41.175 40.44C40.8017 40.92 40.2283 41.3733 39.455 41.8C38.7083 42.2 37.7217 42.4 36.495 42.4ZM38.175 38.96C39.6683 38.96 40.6683 38.4933 41.175 37.56C41.7083 36.6 41.975 35.4267 41.975 34.04C41.975 32.5733 41.7083 31.3867 41.175 30.48C40.6417 29.5733 39.6417 29.12 38.175 29.12C37.135 29.12 36.3217 29.3467 35.735 29.8C35.175 30.2533 34.775 30.8533 34.535 31.6C34.3217 32.32 34.215 33.1333 34.215 34.04C34.215 34.9467 34.3217 35.7733 34.535 36.52C34.775 37.2667 35.175 37.8667 35.735 38.32C36.3217 38.7467 37.135 38.96 38.175 38.96ZM49.18 42V25.56H52.98L53.26 30.12C53.42 29.4267 53.7267 28.7333 54.18 28.04C54.66 27.32 55.3133 26.7333 56.14 26.28C56.9933 25.8 58.0867 25.56 59.42 25.56H60.02V30.12H59.42C57.1267 30.12 55.5267 30.4933 54.62 31.24C53.7133 31.96 53.26 33.1867 53.26 34.92V42H49.18ZM63.9356 42.04V28.44H61.6956V25.56H63.9356V22.88C63.9356 21.44 64.2556 20.4 64.8956 19.76C65.5623 19.12 66.549 18.8 67.8556 18.8H72.1756V21.96H68.0156V25.56H72.0556V28.44H68.0156V42.04H63.9356ZM80.9034 42C79.5968 42 78.6101 41.68 77.9434 41.04C77.3034 40.4 76.9834 39.36 76.9834 37.92V28.44H74.5034V25.56C75.2768 25.56 75.8768 25.48 76.3034 25.32C76.7301 25.16 77.0368 24.7867 77.2234 24.2C77.4101 23.6133 77.5034 22.6667 77.5034 21.36H80.7834V25.56H84.5434V28.44H80.7834V38.8H84.6234V42H80.9034Z" fill="#181817"/>
<path d="M90.0509 42C89.0643 42 88.4109 41.76 88.0909 41.28C87.7709 40.8 87.6109 40.2133 87.6109 39.52C87.6109 38.88 87.7709 38.32 88.0909 37.84C88.4376 37.36 89.0909 37.12 90.0509 37.12C90.9576 37.12 91.5709 37.36 91.8909 37.84C92.2376 38.32 92.4109 38.88 92.4109 39.52C92.4109 40.2133 92.2376 40.8 91.8909 41.28C91.5709 41.76 90.9576 42 90.0509 42Z" fill="#F6D88C"/>
</svg>
